<?xml version="1.0" encoding="utf-8"?>
<!-- Generator: Adobe Illustrator 21.0.0, SVG Export Plug-In . SVG Version: 6.00 Build 0)  -->
<svg version="1.1" xmlns="http://www.w3.org/2000/svg" xmlns:xlink="http://www.w3.org/1999/xlink" x="0px" y="0px"
	 viewBox="0 0 521.3 696.2" style="enable-background:new 0 0 521.3 696.2;" xml:space="preserve">
<style type="text/css">
	.st0{fill:#890606;}
	.st1{fill:#9B1313;}
	.st2{fill:#C10000;}
	.st3{fill:#7C0505;}
	.st4{fill:#9B0202;}
	.st5{fill:#912626;}
	.st6{fill:#DD1212;}
	.st7{fill:#E55151;}
	.st8{fill:#770101;}
	.st9{fill:#510000;}
	.st10{fill:#9E0808;}
	.st11{fill:#B52A2A;}
	.st12{fill:#F72D2D;}
	.st13{fill:#AD0202;}
	.st14{fill:#CC0909;}
	.st15{fill:none;stroke:#000000;stroke-width:2;stroke-miterlimit:10;}
	.st16{fill:none;stroke:#DD1212;stroke-miterlimit:10;}
	.st17{fill:none;stroke:#DD1212;stroke-width:2;stroke-miterlimit:10;}
	.st18{fill:none;stroke:#D60D0D;stroke-miterlimit:10;}
	.st19{fill:none;stroke:#990202;stroke-width:2;stroke-miterlimit:10;}
</style>
<g id="Layer_1">
</g>
<g id="Layer_2">
	<g id="XMLID_2_">
		<g>
			<polygon class="st0" points="248.3,570.7 232.3,618 236.9,572.1 			"/>
			<polygon class="st1" points="391.6,548.7 390.9,548.5 391.6,545.2 354.9,548.7 362.3,538.7 391.6,510 391.6,474 408.9,447.3 
				406.3,531.3 410.3,552 433.6,589.3 411.6,634 371.6,622 374.9,657.3 342.9,687.3 310.3,672.3 264.9,695.3 231.6,662 232.9,621.3 
				210.3,639.7 203.3,588.2 217.3,556 216.3,535.3 236.9,572.1 232.3,618 257.6,608.3 257.6,624 311.3,665.3 354.3,620.7 
				357.7,602.7 373.3,613.2 385.5,615.2 			"/>
			<polygon class="st0" points="216.3,535.3 248.3,570.7 236.9,572.1 			"/>
			<polygon class="st2" points="520.3,0.7 519.2,18.7 505.9,50.3 416.3,264 346.9,190.7 			"/>
			<polygon class="st3" points="519.2,18.7 517.4,48.7 505.9,50.3 			"/>
			<polygon class="st4" points="517.4,48.7 503.6,282 416.3,264 505.9,50.3 			"/>
			<polygon class="st5" points="503.6,282 397.6,422 413,292 416.3,264 			"/>
			<polygon class="st6" points="346.9,190.7 416.3,264 321.6,380.7 			"/>
			<polygon class="st7" points="416.3,264 413,292 365.5,393.7 321.6,380.7 			"/>
			<polygon class="st8" points="413,292 397.6,422 355.6,481.7 365.5,393.7 			"/>
			<polygon class="st1" points="397.6,422 408.9,447.3 391.6,474 363.6,500 362.3,538.7 354.9,548.7 342.3,541.7 355.6,481.7 			"/>
			<polygon class="st6" points="391.6,474 391.6,510 362.3,538.7 363.6,500 			"/>
			<polygon class="st6" points="373.3,599.3 358.9,596 357.7,602.7 354.3,620.7 304.6,646 257.6,624 257.6,608.3 232.3,618 
				248.3,570.7 216.3,535.3 268.3,548.7 280.3,548.7 342.3,541.7 354.9,548.7 391.6,545.2 390.9,548.5 379.4,600.7 			"/>
			<polygon class="st9" points="391.6,548.7 385.5,615.2 373.3,613.2 373.3,599.3 379.4,600.7 390.9,548.5 			"/>
			<polygon class="st9" points="373.3,599.3 373.3,613.2 357.7,602.7 358.9,596 			"/>
			<polygon class="st7" points="365.5,393.7 355.6,481.7 287.6,406.7 321.6,380.7 			"/>
			<polygon class="st6" points="287.6,406.7 355.6,481.7 342.3,541.7 280.3,548.7 248.3,489.3 243.7,487 			"/>
			<polygon class="st9" points="354.3,620.7 311.3,665.3 257.6,624 304.6,646 			"/>
			<path class="st7" d="M201.9,438.7l-9.6-28.8l0.1-0.1l1.9,2.9l23.5-0.7l35.1-30l15.3,16l-7.7-40l2.3-0.6l10,39.3l14.7,10
				L243.7,487l4.6,2.3l32,59.3h-12l-52-13.3L195,471.5l6.1-32.6L201.9,438.7z M254.9,541.7l-13.3-35.3l-28-21l10.5,38.7L254.9,541.7
				z"/>
			<polygon class="st10" points="260.6,358 268.3,398 252.9,382 248.3,352 			"/>
			<polygon class="st7" points="221.1,193.1 262.9,357.4 260.6,358 248.3,352 232.9,365.4 232.9,365.3 185.6,292 			"/>
			<polygon class="st6" points="241.6,506.3 254.9,541.7 224.1,524 213.6,485.3 			"/>
			<polygon class="st10" points="248.3,352 252.9,382 217.8,412 194.3,412.7 191.3,401.7 232.9,365.4 			"/>
			<polygon class="st11" points="175,382.9 90.9,274.4 185.6,292 232.9,365.3 232.9,365.4 191.3,401.7 194.3,412.7 192.4,409.8 
				175,383 			"/>
			<polygon class="st12" points="221.1,193.1 221.1,193.1 185.6,292 52.6,70.7 52.6,37.3 52.5,36.2 61.6,35.3 219.6,187.3 			"/>
			<polygon class="st12" points="52.6,70.7 185.6,292 80.3,260.7 24.1,48.8 26.9,48 30.5,51.2 			"/>
			<polygon class="st13" points="185.6,292 90.9,274.4 80.3,260.7 			"/>
			<polygon class="st6" points="61.6,35.3 52.5,36.2 39.8,37.3 21.9,36.3 19.9,37.7 3.6,13.6 43.6,24.7 			"/>
			<polygon class="st14" points="52.6,37.3 52.6,70.7 30.5,51.2 39.8,37.3 52.5,36.2 			"/>
			<polygon class="st14" points="39.8,37.3 30.5,51.2 26.9,48 24.1,48.8 21.9,40.7 19.9,37.7 21.9,36.3 			"/>
		</g>
		<g>
			<line class="st15" x1="406.3" y1="531.3" x2="408.9" y2="447.3"/>
			<line class="st15" x1="411.6" y1="634" x2="433.6" y2="589.3"/>
			<line class="st15" x1="371.6" y1="622" x2="411.6" y2="634"/>
			<line class="st15" x1="374.9" y1="657.3" x2="371.6" y2="622"/>
			<line class="st15" x1="342.9" y1="687.3" x2="374.9" y2="657.3"/>
			<line class="st15" x1="310.3" y1="672.3" x2="342.9" y2="687.3"/>
			<line class="st15" x1="264.9" y1="695.3" x2="310.3" y2="672.3"/>
			<line class="st15" x1="231.6" y1="662" x2="264.9" y2="695.3"/>
			<line class="st15" x1="232.9" y1="621.3" x2="231.6" y2="662"/>
			<line class="st15" x1="210.3" y1="639.7" x2="232.9" y2="621.3"/>
			<line class="st15" x1="203.3" y1="588.2" x2="210.3" y2="639.7"/>
			<line class="st15" x1="217.3" y1="556" x2="203.3" y2="588.2"/>
			<line class="st15" x1="216.3" y1="535.3" x2="217.3" y2="556"/>
			<line class="st15" x1="195" y1="471.5" x2="216.3" y2="535.3"/>
			<polyline class="st15" points="194.3,412.7 192.4,409.8 175,383 			"/>
			<polyline class="st15" points="192.3,409.9 201.9,438.7 202.6,440.8 			"/>
			<line class="st15" x1="195" y1="471.5" x2="201.1" y2="438.9"/>
			<line class="st16" x1="185.6" y1="292" x2="52.6" y2="70.7"/>
			<line class="st16" x1="52.6" y1="70.7" x2="52.6" y2="37.3"/>
			<line class="st16" x1="185.6" y1="292" x2="221.1" y2="193.1"/>
			<line class="st16" x1="185.6" y1="292" x2="80.3" y2="260.7"/>
			<line class="st16" x1="185.6" y1="292" x2="232.9" y2="365.3"/>
			<line class="st16" x1="416.3" y1="264" x2="346.9" y2="190.7"/>
			<polyline class="st16" points="416.3,264 505.9,50.3 519.2,18.7 			"/>
			<line class="st16" x1="416.3" y1="264" x2="503.6" y2="282"/>
			<polyline class="st16" points="248.3,489.3 243.7,487 200,464.7 			"/>
			<line class="st16" x1="248.3" y1="489.3" x2="280.3" y2="548.7"/>
			<line class="st16" x1="268.3" y1="548.7" x2="280.3" y2="548.7"/>
			<line class="st16" x1="213.6" y1="485.3" x2="241.6" y2="506.3"/>
			<line class="st16" x1="254.9" y1="541.7" x2="241.6" y2="506.3"/>
			<line class="st16" x1="224.1" y1="524" x2="254.9" y2="541.7"/>
			<line class="st16" x1="224.1" y1="524" x2="213.6" y2="485.3"/>
			<line class="st16" x1="391.6" y1="474" x2="363.6" y2="500"/>
			<line class="st16" x1="391.6" y1="474" x2="391.6" y2="510"/>
			<line class="st16" x1="362.3" y1="538.7" x2="391.6" y2="510"/>
			<line class="st16" x1="362.3" y1="538.7" x2="363.6" y2="500"/>
			<line class="st16" x1="287.6" y1="406.7" x2="243.7" y2="487"/>
			<line class="st16" x1="287.6" y1="406.7" x2="355.6" y2="481.7"/>
			<line class="st16" x1="397.6" y1="422" x2="355.6" y2="481.7"/>
			<line class="st16" x1="342.3" y1="541.7" x2="355.6" y2="481.7"/>
			<line class="st16" x1="342.3" y1="541.7" x2="354.9" y2="548.7"/>
			<line class="st16" x1="280.3" y1="548.7" x2="342.3" y2="541.7"/>
			<line class="st16" x1="408.3" y1="554.7" x2="391.6" y2="564"/>
			<polyline class="st16" points="391.6,545.2 390.9,548.5 379.4,600.7 			"/>
			<polyline class="st16" points="358.9,596 373.3,599.3 379.4,600.7 			"/>
			<polyline class="st16" points="358.9,596 357.7,602.7 354.3,620.7 			"/>
			<line class="st16" x1="257.6" y1="624" x2="304.6" y2="646"/>
			<line class="st16" x1="354.3" y1="620.7" x2="304.6" y2="646"/>
			<line class="st16" x1="257.6" y1="624" x2="311.3" y2="665.3"/>
			<line class="st16" x1="354.3" y1="620.7" x2="311.3" y2="665.3"/>
			<line class="st16" x1="268.3" y1="548.7" x2="216.3" y2="535.3"/>
			<line class="st16" x1="216.3" y1="535.3" x2="248.3" y2="570.7"/>
			<line class="st16" x1="248.3" y1="570.7" x2="232.3" y2="618"/>
			<line class="st16" x1="232.3" y1="618" x2="257.6" y2="608.3"/>
			<line class="st16" x1="257.6" y1="624" x2="257.6" y2="608.3"/>
			<line class="st16" x1="357.7" y1="602.7" x2="373.3" y2="613.2"/>
			<polyline class="st16" points="373.3,598.3 373.3,599.3 373.3,613.2 			"/>
			<line class="st16" x1="373.3" y1="613.2" x2="385.5" y2="615.2"/>
			<line class="st16" x1="385.5" y1="615.2" x2="391.6" y2="548.7"/>
			<line class="st16" x1="248.3" y1="352" x2="252.9" y2="382"/>
			<line class="st16" x1="268.3" y1="398" x2="252.9" y2="382"/>
			<line class="st16" x1="248.3" y1="352" x2="260.6" y2="358"/>
			<line class="st16" x1="268.3" y1="398" x2="260.6" y2="358"/>
			<polyline class="st16" points="248.3,352 232.9,365.4 191.3,401.7 			"/>
			<line class="st16" x1="252.9" y1="382" x2="217.8" y2="412"/>
			<line class="st16" x1="217.8" y1="412" x2="194.3" y2="412.7"/>
			<line class="st16" x1="194.3" y1="412.7" x2="191.3" y2="401.7"/>
			<polyline class="st16" points="52.6,70.7 30.5,51.2 26.9,48 			"/>
			<polyline class="st16" points="39.8,37.3 52.5,36.2 61.6,35.3 			"/>
			<line class="st16" x1="39.8" y1="37.3" x2="30.5" y2="51.2"/>
			<line class="st16" x1="39.8" y1="37.3" x2="21.9" y2="36.3"/>
			<line class="st16" x1="505.9" y1="50.3" x2="517.4" y2="48.7"/>
			<polyline class="st15" points="0.3,12.7 3.6,13.6 43.6,24.7 			"/>
			<line class="st15" x1="61.6" y1="35.3" x2="43.6" y2="24.7"/>
			<line class="st15" x1="219.6" y1="187.3" x2="61.6" y2="35.3"/>
			<polyline class="st15" points="21.9,40.7 19.9,37.7 3.6,13.6 			"/>
			<polyline class="st15" points="80.3,260.7 24.1,48.8 21.9,40.7 			"/>
			<polyline class="st15" points="176.9,385.3 175,382.9 90.9,274.4 			"/>
			<line class="st15" x1="221.1" y1="193.1" x2="219.6" y2="187.3"/>
			<line class="st17" x1="221.1" y1="193.1" x2="221.1" y2="193.1"/>
			<polyline class="st15" points="272.9,396.7 262.9,357.4 221.1,193.1 			"/>
			<line class="st15" x1="287.6" y1="406.7" x2="272.9" y2="396.7"/>
			<line class="st15" x1="321.6" y1="380.7" x2="287.6" y2="406.7"/>
			<line class="st15" x1="346.9" y1="190.7" x2="321.6" y2="380.7"/>
			<line class="st15" x1="520.3" y1="0.7" x2="346.9" y2="190.7"/>
			<polyline class="st15" points="503.6,282 517.4,48.7 519.2,18.7 520.3,0.7 			"/>
			<line class="st15" x1="397.6" y1="422" x2="503.6" y2="282"/>
			<line class="st15" x1="408.9" y1="447.3" x2="397.6" y2="422"/>
			<line class="st15" x1="433.6" y1="589.3" x2="410.3" y2="552"/>
			<polyline class="st18" points="397.6,422 413,292 416.3,264 			"/>
			<line class="st18" x1="321.6" y1="380.7" x2="416.3" y2="264"/>
			<line class="st18" x1="365.5" y1="393.7" x2="413" y2="292"/>
			<line class="st18" x1="321.6" y1="380.7" x2="365.5" y2="393.7"/>
			<line class="st18" x1="365.5" y1="393.7" x2="355.6" y2="481.7"/>
			<line class="st18" x1="354.9" y1="548.7" x2="362.3" y2="538.7"/>
			<line class="st18" x1="391.6" y1="474" x2="408.9" y2="447.3"/>
			<line class="st18" x1="354.9" y1="548.7" x2="391.6" y2="545.2"/>
			<line class="st18" x1="391.6" y1="548.7" x2="391.6" y2="564"/>
			<line class="st15" x1="90.9" y1="274.4" x2="80.3" y2="260.7"/>
			<line class="st15" x1="410.3" y1="552" x2="406.3" y2="531.3"/>
			<line class="st19" x1="216.3" y1="535.3" x2="236.9" y2="572.1"/>
			<polyline class="st19" points="230.6,572.9 236.9,572.1 248.3,570.7 			"/>
			<line class="st19" x1="232.3" y1="618" x2="236.9" y2="572.1"/>
		</g>
	</g>
</g>
</svg>
