<?xml version="1.0" encoding="utf-8"?>
<!-- Generator: Adobe Illustrator 21.0.0, SVG Export Plug-In . SVG Version: 6.00 Build 0)  -->
<svg version="1.1" id="Layer_1" xmlns="http://www.w3.org/2000/svg" xmlns:xlink="http://www.w3.org/1999/xlink" x="0px" y="0px"
	 viewBox="0 0 200 200" style="enable-background:new 0 0 200 200;" xml:space="preserve">
<style type="text/css">
	.st0{fill:#FFFFFF;}
	.st1{fill:#F48020;}
	.st2{fill:#2AA9E0;}
	.st3{fill:#36609F;}
</style>
<g>
	<path class="st0" d="M186.6,51.1c-8.9-15.7-21.1-28.1-36.4-37.3C134.9,4.6,118.1,0,100,0C81.9,0,65.1,4.6,49.8,13.7
		c-15.3,9.2-27.5,21.6-36.4,37.3C4.5,66.8,0,83.9,0,102.5c0,22.3,6.4,42.4,19.1,60.3c12.7,17.8,29.1,30.2,49.3,37
		c2.3,0.4,4.1,0.1,5.2-0.9c1.1-1.1,1.7-2.4,1.7-4c0-0.3,0-2.7-0.1-7.2c0-4.5-0.1-8.5-0.1-11.9l-3,0.5c-1.9,0.4-4.3,0.5-7.2,0.5
		c-2.9,0-5.9-0.4-9-0.9c-3.1-0.6-6-1.9-8.7-4c-2.7-2.1-4.6-4.8-5.7-8.2l-1.3-3.1c-0.9-2-2.2-4.3-4.1-6.8c-1.9-2.5-3.8-4.2-5.7-5.1
		l-0.9-0.7c-0.6-0.4-1.2-1-1.7-1.6c-0.5-0.6-0.9-1.2-1.2-1.9c-0.3-0.6,0-1.1,0.7-1.5c0.7-0.4,2-0.6,3.8-0.6l2.6,0.4
		c1.7,0.4,3.9,1.4,6.4,3.2c2.6,1.8,4.7,4.1,6.3,6.9c2,3.6,4.4,6.4,7.2,8.3c2.8,1.9,5.7,2.9,8.5,2.9c2.9,0,5.3-0.2,7.4-0.7
		c2.1-0.4,4-1.1,5.9-2c0.8-6,2.9-10.5,6.4-13.7c-4.9-0.5-9.4-1.3-13.3-2.4c-3.9-1.1-8-2.8-12.2-5.2c-4.2-2.4-7.7-5.4-10.5-8.9
		c-2.8-3.6-5.1-8.2-6.8-14c-1.8-5.8-2.7-12.5-2.7-20c0-10.8,3.4-19.9,10.3-27.5c-3.2-8.1-2.9-17.2,0.9-27.2
		c2.5-0.8,6.3-0.2,11.2,1.8c4.9,2,8.6,3.7,10.9,5.1c2.3,1.4,4.1,2.6,5.5,3.6c8.1-2.3,16.4-3.5,25-3.5s16.9,1.2,25,3.5l4.9-3.2
		c3.4-2.1,7.4-4.1,12-5.9c4.6-1.8,8.1-2.3,10.6-1.5c3.9,10.1,4.3,19.1,1,27.2c6.9,7.6,10.3,16.7,10.3,27.5c0,7.6-0.9,14.3-2.7,20.1
		c-1.8,5.8-4.1,10.5-6.9,14c-2.8,3.5-6.3,6.5-10.5,8.9c-4.2,2.4-8.3,4.1-12.2,5.2c-4,1.1-8.4,1.9-13.3,2.4c4.5,4,6.8,10.3,6.8,19
		v28.2c0,1.6,0.5,2.9,1.6,4c1.1,1.1,2.8,1.4,5.1,0.9c20.1-6.9,36.6-19.2,49.3-37c12.7-17.8,19.1-37.9,19.1-60.3
		C200,83.9,195.5,66.8,186.6,51.1z"/>
</g>
</svg>
