<?xml version="1.0" encoding="utf-8"?>
<!-- Generator: Adobe Illustrator 21.0.0, SVG Export Plug-In . SVG Version: 6.00 Build 0)  -->
<svg version="1.1" id="Layer_1" xmlns="http://www.w3.org/2000/svg" xmlns:xlink="http://www.w3.org/1999/xlink" x="0px" y="0px"
	 viewBox="0 0 200 200" style="enable-background:new 0 0 200 200;" xml:space="preserve">
<style type="text/css">
	.st0{fill:#FFFFFF;}
	.st1{fill:#F48020;}
	.st2{fill:#2AA9E0;}
	.st3{fill:#36609F;}
</style>
<g id="XMLID_2_">
	<circle id="XMLID_38_" class="st0" cx="100" cy="100" r="88.8"/>
	<path id="XMLID_17_" class="st3" d="M100,0C44.8,0,0,44.8,0,100c0,55.2,44.8,100,100,100c55.2,0,100-44.8,100-100
		C200,44.8,155.2,0,100,0z M121.4,100h-14c0,22.4,0,50,0,50H86.6c0,0,0-27.3,0-50h-9.9V82.4h9.9V71c0-8.2,3.9-21,21-21l15.4,0.1
		v17.1c0,0-9.4,0-11.2,0c-1.8,0-4.4,0.9-4.4,4.8v10.4h15.8L121.4,100z"/>
</g>
</svg>
