<?xml version="1.0" encoding="utf-8"?>
<!-- Generator: Adobe Illustrator 21.0.0, SVG Export Plug-In . SVG Version: 6.00 Build 0)  -->
<svg version="1.1" id="Layer_1" xmlns="http://www.w3.org/2000/svg" xmlns:xlink="http://www.w3.org/1999/xlink" x="0px" y="0px"
	 viewBox="0 0 200 200" style="enable-background:new 0 0 200 200;" xml:space="preserve">
<style type="text/css">
	.st0{fill:#FFFFFF;}
	.st1{fill:#F48020;}
	.st2{fill:#2AA9E0;}
	.st3{fill:#36609F;}
</style>
<g id="XMLID_7_">
	<circle id="XMLID_62_" class="st0" cx="100" cy="100" r="88.8"/>
	<path id="XMLID_59_" class="st2" d="M100,0C44.8,0,0,44.8,0,100c0,55.2,44.8,100,100,100c55.2,0,100-44.8,100-100
		C200,44.8,155.2,0,100,0z M139.8,79.6c0,0.9,0.1,1.8,0.1,2.6c0,27.1-20.6,58.4-58.4,58.4c-11.6,0-22.4-3.4-31.5-9.2
		c1.6,0.2,3.2,0.3,4.9,0.3c9.6,0,18.5-3.3,25.5-8.8c-9-0.2-16.6-6.1-19.2-14.2c1.3,0.2,2.5,0.4,3.9,0.4c1.9,0,3.7-0.3,5.4-0.7
		C61.1,106.4,54,98.1,54,88.2c0-0.1,0-0.2,0-0.3c2.8,1.5,5.9,2.5,9.3,2.6c-5.5-3.7-9.1-10-9.1-17.1c0-3.8,1-7.3,2.8-10.3
		c10.1,12.4,25.2,20.6,42.3,21.4c-0.3-1.5-0.5-3.1-0.5-4.7c0-11.3,9.2-20.5,20.5-20.5c5.9,0,11.2,2.5,15,6.5c4.7-0.9,9.1-2.6,13-5
		c-1.5,4.8-4.8,8.8-9,11.4c4.2-0.5,8.1-1.6,11.8-3.2C147.3,73.1,143.8,76.7,139.8,79.6z"/>
</g>
</svg>
