<?xml version="1.0" encoding="utf-8"?>
<!-- Generator: Adobe Illustrator 21.0.0, SVG Export Plug-In . SVG Version: 6.00 Build 0)  -->
<svg version="1.1" xmlns="http://www.w3.org/2000/svg" xmlns:xlink="http://www.w3.org/1999/xlink" x="0px" y="0px"
	 viewBox="0 0 650.3 744" style="enable-background:new 0 0 650.3 744;" xml:space="preserve">
<style type="text/css">
	.st0{fill:#2E3A75;}
	.st1{fill:#302F2F;stroke:#070707;stroke-miterlimit:10;}
</style>
<g id="Layer_1">
</g>
<g id="Layer_2">
	<path class="st0" d="M481.7,311.5c0,0-43.6-20.3-114.7-40.7c1.8,6.9,4.5,13.8,9,19.2c1.1,1.3,2.3,2.5,3.5,3.7
		c4.3,2.9,8,6.4,11,10.6c79.2,27.4,137.1,60.3,168,79.5c15.7,9.7,28.3,18.3,36.9,24.3l-135,4.5c3.3,0.8,7.8,1.7,13.1,2.8
		c57.2,11.5,152.9,21.2,160.2,2.1C641.6,396.9,544.7,345,481.7,311.5z"/>
	<path class="st0" d="M105.7,297.7C68.4,281,50.1,272,51,264.9c1.8-13.4,72.2-10.8,128.1-6c1.9-4.1,5.5-7.7,8.7-10.7
		c3.2-2.9,6.5-5.7,9.8-8.5c0.2-0.2,0.3-0.3,0.5-0.5c0-1.4,0.4-2.6,1.1-3.6c-7.8-0.9-15.6-1.6-23.5-2.3c-9.9-0.9-19.2-1.4-29.5-1.6
		c-10.3-0.2-131.6-3.2-135.8,21.2c-3.3,19.6,69.7,50.9,117.1,71.3c101.2,43.5,186.5,61.2,187.1,59
		C315.4,380.9,230.7,353.3,105.7,297.7z"/>
	<path class="st0" d="M433.7,142.5c-0.2,2.1-1,4.3-2.5,6.8c-2.9,4.8-5.7,11.8-10,15.2c-0.6,0.4-1.2,0.8-1.8,1.1
		c6.4,6.5,11.7,12.5,15.9,17.5c7.6,9,13.6,17.1,17.7,22.9l-80.4,20.5c1.8,0.5,4.3,1,7.2,1.6c31.8,6.3,86.7,6.1,94.2-16
		C479.7,195.5,458,167.9,433.7,142.5z"/>
	<path class="st0" d="M250.5,108.7c47.7,1.4,81.5,13.3,90.7,16.7c8.2,3,16,6.4,23.3,9.9c1-9,2.8-17.9,2.3-26.9
		c-30.7-12.1-77-24.9-133.7-23.9c-5.6,0.1-10.9,0.4-16.8,1.2c-6,0.8-75.8,9.4-82.4,33c-5.3,19,31.7,42.1,55.8,57
		c51.3,32,97.7,40.9,98.5,38.7c0.8-2.3-43.7-20.6-106.6-62c-18.8-12.4-27.9-19.3-26.1-26.1C159.5,110.5,219.6,107.7,250.5,108.7z"/>
	<path class="st0" d="M343,0c0,0-15.4,56.5,62.9,85.9s-7.7,124.4-7.7,124.4s-111.3,69.5,87.2,141.3c18.8,6.8,87.2,38.4,93.8,117.6
		c0,0-247.5-108.5-494.2,0c0,0,15.4-72.4,83.8-100.6c0,0,28.7-20.4,14.3-58.8c0,0-59.6-45.2,55.2-102.9l93.4-45.2
		c0,0,52.2-20.4,20.2-72.4S332,11.3,343,0"/>
	<path d="M232.4,547.2c0.5-1.5-58-31-119.6-21.1c-32.3,5.2-70.6,22-93.4,54.5c-3.1,4.4-38.1,56.2-5.8,105.7
		c35.4,54.4,145.9,51.2,145.9,51.2c0,0-54.6-6.9-108-37.4c-9.7-5.5-12.7-8-14.6-9.8c-26.6-24.2-23.5-68.1-4.9-98.4
		c18.5-29.9,53.3-48.3,84.6-53.7c23.8-4.1,48.2-1.1,76.8,2.4C219.9,543.9,232.2,547.9,232.4,547.2z"/>
	<path d="M442.3,635c-1.4-0.7,88.9-71.1,70.2-127.8c-20.4-61.8-168.6-102.9-272.4-69.3c-84.4,27.3-127.4,102.9-127.3,103
		c0.1,0.1,23.9-29.9,71.4-59.4c23.4-14.5,51.9-32.2,92.8-40.6c55-11.2,99.9,1.2,135.6,10.9c18.7,5.1,35.4,11.3,51.2,22.8
		c9.1,6.6,22.4,16.3,28.6,32.7c5.5,14.6,2.5,27.1-1.2,42.6c-1.1,4.7-4.1,16-13.1,33.7C462.3,614.1,443,635.4,442.3,635z"/>
	<path d="M577.4,534.2c15.2,7.3,58.7,28.2,70.1,71.6c13,49.1-20.9,105.3-67.9,127.2c-36.6,17.1-82.1,13.9-112.1-7.1
		c-20.5-14.3-32.4-36.1-31.2-37.2c1.1-1,13.3,15.3,36.3,28.6c8.9,5.2,27.3,15.8,52.1,17.2c36.6,2,63.9-17.5,73.8-25.5
		c7.5-6.1,33.4-27.3,38.7-63.4c0.9-6.2,3.7-27-6.4-49.1c-6.2-13.7-14.9-22.5-24.2-31.7c-7.2-7.2-15.2-15.1-27.9-21.8
		c-6.8-3.6-13.3-5.8-26.3-10.2c-5.9-2-12.9-4.3-21.2-6.6c-21.9-6.1-35.1-7.8-35.1-8.2C496.4,517.3,537.6,515,577.4,534.2z"/>
	<path class="st1" d="M206.6,547.8c-11.9-1.6-68.9-8.8-111.7,4.6c-7.2,2.3-19.1,6.1-31.9,15.1c-16.6,11.6-24.7,24.9-26.5,27.9
		c-11.8,20-18.7,52.6-1.2,77.1c7.8,11,18.5,16.4,39.8,27.1c38.9,19.7,77.4,27.2,78.4,25c0.5-1.3-10.5-4.9-38.2-19.9
		c-12.9-7-19.5-10.6-26.1-15.3c-12-8.6-24.5-17.4-32.1-33.1c-2-4.1-7.1-14.9-6-29.3c1.4-18.9,12.4-31.6,18.1-38
		c12.1-13.6,26-19.9,35-23.9c3.8-1.7,14.9-6.4,44.6-11.3C162.9,551.5,182.6,548.9,206.6,547.8z"/>
	<path class="st1" d="M170,510.1c-1.1-1.6,17.4-21.4,44.3-36.2c19.5-10.8,38-16,48.3-18.8c3.1-0.9,15.6-4.5,32.6-6.7
		c10.2-1.3,24.6-3.5,43-3c5.4,0.1,26.2,0.9,53.5,8.4c24.4,6.7,40.1,11,56,24.8c6.6,5.8,16.4,14.3,22.3,28.9
		c10,24.8,1.7,49.4-5.2,69.8c-6.8,20.1-16.6,36.9-18.3,36.2c-1.1-0.5,5.8-13.1,7.8-33.6c0.6-5.9,0.4-14.2,0-30.9
		c-0.4-14.9-0.5-22.3-1.3-25.5c-4.3-17.7-17.5-28.6-23.5-33.6c-12.4-10.2-23.9-13.6-41.7-18.8c-21.2-6.2-39.4-7.7-50.9-8.1
		c-18.5-0.6-32.9,1.6-49.6,4c-14.6,2.2-25.4,4.6-28.7,5.4c-7.9,1.8-24.1,5.7-41,12.3C187.1,496.8,171,511.5,170,510.1z"/>
	<path class="st1" d="M456.6,685.1c-0.5,0.9,25.4,24.9,62.3,28c41.2,3.4,69.7-19.6,77.4-25.9c10.3-8.6,30.2-25.1,33.3-51.8
		c3.5-29.6-16-52-24.7-62.2c-12.4-14.3-25.3-22.3-31.5-25.9c-23.9-14-48.5-18-49-16.5c-0.4,1.1,12,4.5,30.1,15.5
		c9.4,5.7,21.4,13.1,33.3,25.9c8.2,8.9,18.1,19.4,22.6,36.3c1.6,6.1,4.8,18.7,0,33.2c-2.7,8.1-6.7,13.3-11.8,19.7
		c-13.4,16.8-28.5,25.8-32.2,28c-10.4,6-26.9,15.5-48.4,14.5c-8.1-0.4-14.7-2.4-27.9-6.2C468.5,691.3,456.9,684.6,456.6,685.1z"/>
</g>
</svg>
